<svg width="76" height="13" viewBox="0 0 76 13" fill="none" xmlns="http://www.w3.org/2000/svg">
<path d="M6 9.135L9.09 11L8.27 7.485L11 5.12L7.405 4.815L6 1.5L4.595 4.815L1 5.12L3.73 7.485L2.91 11L6 9.135Z" fill="#F0A04B"/>
<path d="M22 9.135L25.09 11L24.27 7.485L27 5.12L23.405 4.815L22 1.5L20.595 4.815L17 5.12L19.73 7.485L18.91 11L22 9.135Z" fill="#F0A04B"/>
<path d="M38 9.135L41.09 11L40.27 7.485L43 5.12L39.405 4.815L38 1.5L36.595 4.815L33 5.12L35.73 7.485L34.91 11L38 9.135Z" fill="#F0A04B"/>
<path d="M54 9.135L57.09 11L56.27 7.485L59 5.12L55.405 4.815L54 1.5L52.595 4.815L49 5.12L51.73 7.485L50.91 11L54 9.135Z" fill="#F0A04B"/>
<path d="M70 9.135L73.09 11L72.27 7.485L75 5.12L71.405 4.815L70 1.5L68.595 4.815L65 5.12L67.73 7.485L66.91 11L70 9.135Z" fill="#F0A04B"/>
</svg>
