<svg width="25" height="24" viewBox="0 0 25 24" fill="none" xmlns="http://www.w3.org/2000/svg">
<path d="M5.22787 16.1368C3.68287 14.5908 2.90987 13.8188 2.62287 12.8158C2.33487 11.8128 2.58087 10.7478 3.07287 8.61876L3.35587 7.39076C3.76887 5.59876 3.97587 4.70276 4.58887 4.08876C5.20287 3.47576 6.09887 3.26876 7.89087 2.85576L9.11887 2.57176C11.2489 2.08076 12.3129 1.83476 13.3159 2.12176C14.3189 2.40976 15.0909 3.18276 16.6359 4.72776L18.4659 6.55776C21.1569 9.24776 22.4999 10.5918 22.4999 12.2618C22.4999 13.9328 21.1549 15.2768 18.4659 17.9658C15.7769 20.6568 14.4329 21.9998 12.7619 21.9998C11.0919 21.9998 9.74687 20.6548 7.05787 17.9658L5.22787 16.1368Z" stroke="#183A1D" stroke-width="1.5"/>
<path d="M15.8899 15.39C16.4749 14.803 16.5539 13.933 16.0659 13.444C15.5779 12.956 14.7069 13.035 14.1209 13.621C13.5359 14.207 12.6649 14.286 12.1769 13.798C11.6889 13.31 11.7679 12.439 12.3539 11.854M12.3539 11.854L11.9999 11.5M12.3539 11.854C12.6849 11.522 13.1069 11.354 13.4999 11.357M16.2429 15.743L15.8889 15.389C15.4889 15.79 14.9539 15.954 14.4999 15.86" stroke="#183A1D" stroke-width="1.5" stroke-linecap="round"/>
<path d="M10.521 10.2931C11.302 9.51207 11.302 8.24574 10.521 7.46469C9.73991 6.68364 8.47358 6.68364 7.69253 7.46469C6.91149 8.24574 6.91148 9.51207 7.69253 10.2931C8.47358 11.0742 9.73991 11.0742 10.521 10.2931Z" stroke="#183A1D" stroke-width="1.5"/>
</svg>
