<svg width="24" height="24" viewBox="0 0 24 24" fill="none" xmlns="http://www.w3.org/2000/svg">
<path d="M3 7H6M3 11H5M9.02 8.801L8.42 14.801C8.3922 15.079 8.42296 15.3598 8.51031 15.6252C8.59766 15.8906 8.73966 16.1348 8.92715 16.342C9.11464 16.5492 9.34346 16.7148 9.59886 16.8281C9.85426 16.9414 10.1306 17 10.41 17H18.39C18.886 17 19.3642 16.8157 19.732 16.4829C20.0997 16.1501 20.3307 15.6925 20.38 15.199L20.98 9.199C21.0078 8.92097 20.977 8.64019 20.8897 8.37478C20.8023 8.10936 20.6603 7.86519 20.4729 7.65801C20.2854 7.45083 20.0565 7.28524 19.8011 7.17191C19.5457 7.05857 19.2694 7.00001 18.99 7H11.01C10.514 7.00002 10.0358 7.18432 9.66803 7.51712C9.3003 7.84993 9.06935 8.30749 9.02 8.801Z" stroke="#183A1D" stroke-width="2" stroke-linecap="round" stroke-linejoin="round"/>
<path d="M9.7998 7.5L12.7818 10.78C13.0468 11.0715 13.3666 11.308 13.723 11.476C14.0794 11.6439 14.4654 11.74 14.859 11.7588C15.2525 11.7775 15.6459 11.7186 16.0166 11.5853C16.3874 11.452 16.7283 11.247 17.0198 10.982L20.2998 8" stroke="#183A1D" stroke-width="2" stroke-linecap="round" stroke-linejoin="round"/>
</svg>
