<svg width="166" height="166" viewBox="0 0 166 166" fill="none" xmlns="http://www.w3.org/2000/svg">
<rect width="166" height="165.956" rx="82.9782" fill="#E1EEDD"/>
<path d="M85.7517 16.6763V17.373H82.1415V16.6763H85.7517Z" fill="#183A1D"/>
<path d="M101.862 16.5886L101.709 17.2404L100.035 16.8476L98.7473 22.3355L97.9457 22.1474L99.2337 16.6595L97.5512 16.2646L97.7042 15.6128L101.862 16.5886Z" fill="#183A1D"/>
<path d="M106.089 20.3051C106.321 20.0874 106.588 19.9498 106.891 19.8922C107.2 19.8366 107.536 19.8743 107.899 20.0051L107.611 20.8053L107.406 20.7317C106.538 20.4189 105.934 20.7336 105.595 21.6756L104.681 24.2124L103.906 23.9333L105.587 19.2684L106.362 19.5475L106.089 20.3051Z" fill="#183A1D"/>
<path d="M110.775 24.049C111 23.5952 111.289 23.2437 111.642 22.9946C111.998 22.7401 112.382 22.5975 112.794 22.5667C113.212 22.5386 113.619 22.6226 114.013 22.8184C114.402 23.0117 114.698 23.2631 114.901 23.5728C115.104 23.8825 115.213 24.1992 115.227 24.5229L115.63 23.7125L116.375 24.0829L114.169 28.5236L113.424 28.1533L113.835 27.3267C113.56 27.5136 113.234 27.621 112.856 27.6489C112.487 27.6742 112.11 27.5915 111.726 27.401C111.332 27.2051 111.024 26.9308 110.802 26.5779C110.58 26.2251 110.464 25.8275 110.455 25.3851C110.445 24.9427 110.552 24.4974 110.775 24.049ZM114.531 25.9248C114.697 25.5898 114.775 25.2646 114.763 24.949C114.751 24.6334 114.662 24.3531 114.494 24.108C114.334 23.8603 114.116 23.6679 113.841 23.5311C113.565 23.3942 113.282 23.3343 112.991 23.3512C112.699 23.3682 112.424 23.4673 112.166 23.6488C111.907 23.8302 111.695 24.0884 111.529 24.4233C111.359 24.7637 111.279 25.0943 111.288 25.4153C111.3 25.7309 111.386 26.0126 111.545 26.2604C111.708 26.5027 111.927 26.6923 112.202 26.8292C112.478 26.9661 112.761 27.026 113.053 27.0091C113.352 26.9894 113.631 26.8889 113.89 26.7074C114.151 26.5206 114.364 26.2597 114.531 25.9248Z" fill="#183A1D"/>
<path d="M117.367 27.6346C117.643 27.2097 117.97 26.8938 118.35 26.6869C118.732 26.475 119.13 26.3775 119.543 26.3944C119.962 26.4146 120.358 26.5463 120.732 26.7895C121.056 26.9999 121.308 27.2713 121.487 27.6038C121.67 27.9313 121.756 28.2641 121.745 28.6022L123.175 26.402L123.873 26.8556L120.224 32.4699L119.526 32.0163L120.034 31.2348C119.736 31.3939 119.401 31.4673 119.028 31.4549C118.658 31.4375 118.293 31.3121 117.934 31.0787C117.565 30.8388 117.288 30.5291 117.103 30.1498C116.923 29.7738 116.853 29.3656 116.895 28.925C116.937 28.4845 117.094 28.0544 117.367 27.6346ZM120.882 29.9299C121.086 29.6163 121.2 29.3021 121.225 28.9872C121.25 28.6724 121.193 28.3836 121.054 28.1209C120.924 27.8564 120.73 27.6403 120.472 27.4727C120.214 27.3051 119.939 27.2129 119.648 27.1962C119.357 27.1796 119.072 27.2465 118.795 27.397C118.517 27.5475 118.276 27.7795 118.072 28.0931C117.865 28.4117 117.748 28.731 117.72 29.0509C117.695 29.3657 117.748 29.6554 117.878 29.9199C118.011 30.1794 118.207 30.3929 118.465 30.5605C118.723 30.7282 118.998 30.8203 119.289 30.837C119.589 30.8519 119.877 30.7841 120.155 30.6336C120.436 30.478 120.678 30.2435 120.882 29.9299Z" fill="#183A1D"/>
<path d="M126.948 30.5657C126.827 30.4657 126.759 30.3393 126.745 30.1864C126.731 30.0335 126.773 29.8967 126.873 29.7759C126.973 29.6551 127.1 29.5875 127.253 29.5731C127.406 29.5587 127.542 29.6015 127.663 29.7015C127.779 29.7977 127.842 29.9203 127.852 30.0693C127.867 30.2222 127.824 30.359 127.724 30.4798C127.624 30.6007 127.497 30.6682 127.344 30.6826C127.196 30.7009 127.064 30.6619 126.948 30.5657ZM126.741 31.4399L123.579 35.2592L122.945 34.7341L126.107 30.9148L126.741 31.4399Z" fill="#183A1D"/>
<path d="M131.774 37.1636L129.664 39.1855C129.489 39.3524 129.401 39.5084 129.398 39.6534C129.399 39.7942 129.487 39.956 129.662 40.139L130.082 40.5767L129.579 41.0587L129.065 40.523C128.748 40.1919 128.587 39.8706 128.58 39.5591C128.574 39.2475 128.746 38.9248 129.094 38.5909L131.204 36.5691L130.76 36.1052L131.25 35.6357L131.694 36.0996L132.596 35.2358L133.166 35.8303L132.264 36.6942L133.159 37.6284L132.669 38.0979L131.774 37.1636Z" fill="#183A1D"/>
<path d="M137.76 41.9941C137.665 41.8691 137.628 41.7305 137.649 41.5784C137.67 41.4263 137.743 41.3029 137.868 41.2081C137.993 41.1133 138.131 41.0764 138.283 41.0973C138.436 41.1183 138.559 41.1912 138.654 41.3162C138.745 41.4364 138.778 41.5701 138.754 41.7174C138.733 41.8695 138.66 41.993 138.535 42.0877C138.41 42.1825 138.271 42.2194 138.119 42.1985C137.971 42.1824 137.851 42.1142 137.76 41.9941ZM137.359 42.7978L133.407 45.7936L132.91 45.1375L136.861 42.1417L137.359 42.7978Z" fill="#183A1D"/>
<path d="M137.521 52.2893C137.285 51.8894 137.161 51.4721 137.15 51.0376C137.141 50.6082 137.248 50.2018 137.47 49.8185C137.7 49.4373 138.036 49.1164 138.477 48.8557C138.914 48.598 139.353 48.4645 139.796 48.4551C140.247 48.4479 140.658 48.5558 141.028 48.7787C141.403 48.9985 141.71 49.311 141.949 49.7162C142.188 50.1213 142.314 50.5411 142.325 50.9757C142.342 51.4072 142.239 51.8146 142.017 52.1979C141.798 52.5864 141.468 52.9111 141.027 53.1718C140.585 53.4325 140.137 53.5639 139.683 53.5659C139.237 53.5701 138.825 53.4596 138.447 53.2346C138.069 53.0095 137.76 52.6945 137.521 52.2893ZM138.144 51.9212C138.295 52.1757 138.495 52.3794 138.747 52.5322C138.998 52.6849 139.283 52.7583 139.602 52.7522C139.924 52.7514 140.256 52.6497 140.599 52.4472C140.941 52.2448 141.192 52.0055 141.352 51.7293C141.511 51.4532 141.583 51.1723 141.568 50.8867C141.559 50.598 141.479 50.3264 141.329 50.0719C141.176 49.8122 140.975 49.6085 140.726 49.4609C140.486 49.3155 140.209 49.2484 139.893 49.2596C139.577 49.2709 139.248 49.3777 138.905 49.5802C138.557 49.7857 138.301 50.0214 138.135 50.2871C137.973 50.5581 137.895 50.8353 137.902 51.1188C137.913 51.3993 137.994 51.6667 138.144 51.9212Z" fill="#183A1D"/>
<path d="M145.479 56.9113C145.724 57.4625 145.754 57.9837 145.57 58.4749C145.391 58.9637 144.987 59.3477 144.359 59.627L141.688 60.8139L141.358 60.0698L143.921 58.9306C144.373 58.7297 144.667 58.4636 144.804 58.1322C144.946 57.7984 144.93 57.4359 144.756 57.0445C144.58 56.6476 144.315 56.3858 143.961 56.259C143.61 56.1377 143.198 56.1824 142.724 56.3931L140.218 57.5066L139.884 56.7542L144.415 54.7404L144.75 55.4928L144.105 55.7794C144.402 55.8254 144.671 55.9469 144.91 56.1442C145.152 56.3469 145.342 56.6026 145.479 56.9113Z" fill="#183A1D"/>
<path d="M144.762 62.2668C145.246 62.1156 145.7 62.0812 146.123 62.1636C146.553 62.2441 146.922 62.4228 147.23 62.6995C147.539 62.9819 147.759 63.3333 147.891 63.7536C148.02 64.1681 148.044 64.5558 147.961 64.9168C147.877 65.2777 147.724 65.5753 147.5 65.8096L148.364 65.5396L148.612 66.3342L143.88 67.8135L143.631 67.019L144.512 66.7436C144.187 66.6746 143.884 66.5134 143.603 66.2601C143.329 66.0107 143.128 65.6816 143 65.2729C142.869 64.8526 142.854 64.4402 142.955 64.0357C143.056 63.6313 143.263 63.2726 143.576 62.9599C143.889 62.6472 144.284 62.4161 144.762 62.2668ZM146.006 66.2766C146.363 66.165 146.652 65.9959 146.871 65.7692C147.091 65.5424 147.232 65.2837 147.292 64.9929C147.361 64.7061 147.349 64.4159 147.257 64.1223C147.165 63.8287 147.013 63.5825 146.799 63.3839C146.585 63.1853 146.323 63.0554 146.013 62.9943C145.704 62.9331 145.37 62.9583 145.013 63.0699C144.651 63.1833 144.356 63.3542 144.131 63.5828C143.911 63.8095 143.767 64.0662 143.698 64.3531C143.636 64.6381 143.65 64.9274 143.742 65.221C143.834 65.5146 143.987 65.7607 144.201 65.9594C144.422 66.1619 144.687 66.2938 144.997 66.355C145.313 66.4143 145.649 66.3882 146.006 66.2766Z" fill="#183A1D"/>
<path d="M151.262 70.8522L144.684 72.1016L144.531 71.2927L151.109 70.0433L151.262 70.8522Z" fill="#183A1D"/>
<path d="M151.62 90.7688L145.365 90.5009L145.4 89.6782L150.065 89.878L145.489 87.5991L145.514 87.0205L150.277 85.1325L145.603 84.9323L145.639 84.1097L151.894 84.3776L151.856 85.2635L146.586 87.3562L151.658 89.892L151.62 90.7688Z" fill="#183A1D"/>
<path d="M146.908 96.8753C146.753 96.8506 146.59 96.8156 146.42 96.7702L147.044 92.8565C146.557 92.8093 146.153 92.9129 145.831 93.167C145.515 93.4281 145.322 93.7731 145.254 94.202C145.198 94.5535 145.232 94.8582 145.355 95.1161C145.484 95.381 145.678 95.5829 145.937 95.7219L145.797 96.5976C145.348 96.3915 145.005 96.0681 144.77 95.6275C144.541 95.1878 144.473 94.6761 144.566 94.0923C144.64 93.6277 144.811 93.2273 145.078 92.8912C145.344 92.5611 145.685 92.3221 146.099 92.1744C146.52 92.0277 146.983 91.9946 147.489 92.0753C147.996 92.156 148.423 92.328 148.772 92.5914C149.121 92.8547 149.368 93.1841 149.513 93.5798C149.662 93.9824 149.699 94.4219 149.623 94.8985C149.549 95.3631 149.382 95.758 149.123 96.0831C148.863 96.4083 148.54 96.6376 148.152 96.7713C147.769 96.9119 147.354 96.9465 146.908 96.8753ZM147.211 96.0624C147.521 96.1118 147.797 96.0856 148.039 95.9837C148.287 95.8828 148.487 95.7222 148.638 95.5019C148.794 95.2886 148.895 95.039 148.941 94.7531C149.006 94.342 148.931 93.9697 148.716 93.636C148.499 93.3083 148.162 93.0866 147.704 92.9708L147.211 96.0624Z" fill="#183A1D"/>
<path d="M144.885 104.133C144.734 104.091 144.576 104.037 144.413 103.973L145.483 100.157C145.004 100.054 144.59 100.11 144.242 100.326C143.897 100.549 143.667 100.869 143.549 101.287C143.453 101.63 143.452 101.937 143.545 102.207C143.643 102.485 143.812 102.708 144.053 102.876L143.814 103.73C143.391 103.473 143.088 103.113 142.905 102.648C142.728 102.185 142.719 101.668 142.878 101.099C143.005 100.646 143.221 100.268 143.525 99.9651C143.828 99.6677 144.194 99.4696 144.622 99.3705C145.057 99.273 145.521 99.2935 146.015 99.4319C146.508 99.5703 146.913 99.7904 147.23 100.092C147.546 100.394 147.753 100.749 147.851 101.159C147.954 101.576 147.94 102.017 147.81 102.482C147.683 102.935 147.471 103.308 147.176 103.601C146.881 103.894 146.533 104.085 146.133 104.173C145.736 104.269 145.32 104.255 144.885 104.133ZM145.28 103.361C145.582 103.445 145.859 103.451 146.111 103.378C146.369 103.306 146.586 103.169 146.762 102.968C146.941 102.774 147.07 102.538 147.149 102.259C147.261 101.858 147.229 101.48 147.053 101.123C146.876 100.773 146.566 100.514 146.125 100.346L145.28 103.361Z" fill="#183A1D"/>
<path d="M144.669 108.942L141.964 107.834C141.741 107.743 141.562 107.725 141.428 107.781C141.3 107.84 141.188 107.986 141.092 108.22L140.863 108.782L140.218 108.518L140.499 107.831C140.673 107.407 140.901 107.128 141.183 106.996C141.465 106.864 141.829 106.89 142.276 107.072L144.981 108.18L145.224 107.585L145.852 107.842L145.609 108.437L146.764 108.91L146.452 109.672L145.297 109.199L144.806 110.396L144.178 110.139L144.669 108.942Z" fill="#183A1D"/>
<path d="M137.258 114.112C137.441 113.779 137.661 113.511 137.918 113.308C138.18 113.108 138.453 112.987 138.739 112.944C139.029 112.905 139.311 112.95 139.584 113.079L139.173 113.824C138.945 113.726 138.712 113.729 138.476 113.833C138.237 113.942 138.036 114.144 137.873 114.44C137.721 114.715 137.662 114.965 137.697 115.19C137.731 115.416 137.84 115.579 138.025 115.681C138.215 115.786 138.402 115.779 138.585 115.659C138.773 115.543 139.01 115.332 139.295 115.028C139.557 114.752 139.787 114.535 139.985 114.375C140.186 114.224 140.411 114.121 140.662 114.066C140.915 114.02 141.181 114.074 141.461 114.228C141.683 114.35 141.85 114.529 141.962 114.762C142.074 114.996 142.116 115.264 142.088 115.565C142.065 115.87 141.967 116.177 141.795 116.489C141.53 116.97 141.195 117.291 140.789 117.453C140.383 117.615 139.962 117.59 139.528 117.378L139.926 116.657C140.162 116.766 140.395 116.774 140.625 116.681C140.853 116.593 141.044 116.409 141.198 116.129C141.341 115.87 141.399 115.634 141.373 115.419C141.346 115.205 141.243 115.048 141.063 114.949C140.921 114.87 140.777 114.85 140.633 114.887C140.49 114.933 140.352 115.008 140.219 115.114C140.087 115.227 139.919 115.389 139.713 115.599C139.457 115.865 139.232 116.071 139.04 116.22C138.853 116.372 138.64 116.472 138.4 116.519C138.158 116.571 137.903 116.527 137.636 116.387C137.399 116.256 137.221 116.072 137.104 115.835C136.986 115.598 136.939 115.327 136.962 115.023C136.988 114.727 137.086 114.423 137.258 114.112Z" fill="#183A1D"/>
<path d="M130.884 132.741L126.236 128.545L126.788 127.934L130.254 131.063L128.183 126.389L128.571 125.96L133.444 127.543L129.971 124.408L130.523 123.797L135.171 127.993L134.576 128.651L129.183 126.902L131.472 132.09L130.884 132.741Z" fill="#183A1D"/>
<path d="M123.317 130.814C123.666 130.507 124.052 130.308 124.477 130.215C124.897 130.127 125.317 130.156 125.735 130.303C126.152 130.458 126.53 130.728 126.869 131.113C127.203 131.493 127.416 131.9 127.508 132.334C127.599 132.776 127.57 133.199 127.42 133.604C127.274 134.013 127.024 134.373 126.671 134.684C126.318 134.995 125.929 135.196 125.504 135.289C125.083 135.386 124.664 135.361 124.246 135.214C123.823 135.072 123.442 134.808 123.104 134.423C122.765 134.038 122.553 133.622 122.466 133.176C122.379 132.739 122.41 132.314 122.561 131.9C122.711 131.487 122.963 131.125 123.317 130.814ZM123.795 131.358C123.573 131.553 123.41 131.788 123.307 132.064C123.204 132.339 123.185 132.633 123.25 132.945C123.311 133.261 123.473 133.568 123.736 133.867C123.999 134.166 124.281 134.368 124.582 134.473C124.883 134.578 125.172 134.596 125.45 134.529C125.732 134.466 125.984 134.336 126.206 134.141C126.432 133.942 126.595 133.707 126.694 133.435C126.792 133.172 126.806 132.887 126.736 132.579C126.666 132.271 126.499 131.968 126.237 131.669C125.97 131.365 125.69 131.157 125.398 131.044C125.102 130.935 124.815 130.91 124.538 130.969C124.264 131.033 124.017 131.162 123.795 131.358Z" fill="#183A1D"/>
<path d="M121.188 135.748C121.477 136.164 121.645 136.587 121.693 137.016C121.744 137.451 121.684 137.856 121.512 138.232C121.334 138.612 121.062 138.929 120.695 139.183C120.378 139.403 120.031 139.533 119.656 139.573C119.283 139.618 118.943 139.571 118.634 139.433L120.129 141.59L119.444 142.064L115.631 136.56L116.315 136.086L116.846 136.852C116.812 136.517 116.871 136.178 117.024 135.838C117.18 135.502 117.434 135.212 117.786 134.968C118.148 134.717 118.54 134.578 118.961 134.55C119.377 134.526 119.781 134.617 120.173 134.822C120.565 135.028 120.903 135.336 121.188 135.748ZM117.732 138.132C117.945 138.439 118.193 138.664 118.475 138.806C118.757 138.948 119.046 139.005 119.341 138.976C119.635 138.956 119.909 138.858 120.162 138.683C120.415 138.508 120.604 138.288 120.73 138.025C120.856 137.762 120.901 137.473 120.867 137.159C120.833 136.845 120.71 136.535 120.497 136.227C120.28 135.915 120.029 135.685 119.744 135.538C119.462 135.396 119.174 135.335 118.88 135.355C118.589 135.38 118.317 135.481 118.064 135.656C117.812 135.831 117.622 136.05 117.496 136.314C117.369 136.585 117.323 136.878 117.357 137.192C117.394 137.511 117.519 137.824 117.732 138.132Z" fill="#183A1D"/>
<path d="M110.533 142.3C110.459 142.162 110.389 142.011 110.323 141.848L113.818 139.981C113.561 139.564 113.234 139.304 112.838 139.202C112.438 139.107 112.047 139.162 111.664 139.367C111.35 139.535 111.128 139.746 110.997 140C110.864 140.263 110.82 140.539 110.866 140.83L110.084 141.247C109.976 140.765 110.027 140.296 110.236 139.843C110.448 139.394 110.814 139.031 111.336 138.752C111.751 138.531 112.173 138.425 112.602 138.435C113.026 138.448 113.422 138.575 113.791 138.816C114.162 139.062 114.468 139.411 114.709 139.864C114.951 140.316 115.072 140.76 115.073 141.198C115.074 141.635 114.961 142.03 114.733 142.385C114.503 142.747 114.175 143.042 113.749 143.269C113.334 143.491 112.919 143.597 112.503 143.587C112.087 143.576 111.709 143.457 111.368 143.229C111.024 143.009 110.746 142.699 110.533 142.3ZM111.364 142.051C111.512 142.327 111.7 142.531 111.927 142.663C112.158 142.8 112.406 142.862 112.673 142.849C112.937 142.845 113.197 142.774 113.453 142.638C113.82 142.442 114.071 142.157 114.207 141.784C114.337 141.413 114.31 141.01 114.126 140.576L111.364 142.051Z" fill="#183A1D"/>
<path d="M107.033 145.286C107.003 145.603 106.892 145.883 106.703 146.126C106.508 146.372 106.231 146.565 105.872 146.707L105.56 145.915L105.762 145.836C106.621 145.497 106.866 144.862 106.499 143.931L105.511 141.422L106.277 141.12L108.095 145.733L107.329 146.035L107.033 145.286Z" fill="#183A1D"/>
<path d="M98.8993 148.779C98.3163 148.934 97.7969 148.882 97.3408 148.623C96.8863 148.369 96.5706 147.91 96.3937 147.246L95.6419 144.422L96.4289 144.212L97.1504 146.923C97.2776 147.401 97.4941 147.733 97.7998 147.92C98.1071 148.113 98.4677 148.155 98.8815 148.044C99.3012 147.933 99.6015 147.712 99.7823 147.383C99.9573 147.056 99.9781 146.641 99.8447 146.14L99.1394 143.491L99.9351 143.279L101.211 148.07L100.415 148.282L100.233 147.6C100.141 147.887 99.9788 148.133 99.7463 148.338C99.508 148.545 99.2257 148.692 98.8993 148.779Z" fill="#183A1D"/>
<path d="M82.2079 149.324L82.1872 148.627L85.7959 148.52L85.8165 149.217L82.2079 149.324Z" fill="#183A1D"/>
<path d="M66.1076 149.889L66.2412 149.233L67.9257 149.576L69.0505 144.052L69.8573 144.217L68.7326 149.74L70.426 150.085L70.2924 150.741L66.1076 149.889Z" fill="#183A1D"/>
<path d="M61.7724 146.299C61.5467 146.524 61.2833 146.669 60.9823 146.736C60.6755 146.8 60.3387 146.773 59.9718 146.653L60.2362 145.844L60.4426 145.912C61.3198 146.199 61.914 145.866 62.2253 144.915L63.0636 142.352L63.8462 142.608L62.3046 147.32L61.5221 147.065L61.7724 146.299Z" fill="#183A1D"/>
<path d="M56.9773 142.696C56.7655 143.156 56.4869 143.516 56.1417 143.775C55.794 144.04 55.4143 144.194 55.0028 144.237C54.5857 144.278 54.1772 144.206 53.7772 144.022C53.3827 143.84 53.0793 143.598 52.8671 143.294C52.6549 142.99 52.5368 142.677 52.5129 142.354L52.1345 143.176L51.3784 142.828L53.4516 138.324L54.2078 138.672L53.8219 139.51C54.0909 139.315 54.4137 139.198 54.7903 139.159C55.1589 139.123 55.5378 139.194 55.9268 139.373C56.3268 139.558 56.6431 139.823 56.8755 140.169C57.108 140.515 57.2355 140.909 57.2578 141.351C57.2802 141.793 57.1867 142.241 56.9773 142.696ZM53.1674 140.932C53.011 141.272 52.9433 141.599 52.9643 141.914C52.9852 142.229 53.0833 142.507 53.2583 142.747C53.4254 142.99 53.6487 143.176 53.9281 143.304C54.2076 143.433 54.4927 143.484 54.7833 143.459C55.074 143.433 55.3458 143.326 55.5989 143.137C55.8519 142.948 56.0566 142.684 56.2129 142.344C56.3718 141.999 56.4421 141.666 56.4236 141.345C56.4027 141.03 56.3086 140.751 56.1416 140.508C55.972 140.271 55.7474 140.088 55.468 139.959C55.1885 139.83 54.9035 139.779 54.6128 139.804C54.3141 139.833 54.0383 139.942 53.7853 140.131C53.5297 140.325 53.3238 140.592 53.1674 140.932Z" fill="#183A1D"/>
<path d="M50.2819 139.307C50.0185 139.74 49.7004 140.065 49.3276 140.283C48.9517 140.507 48.5569 140.616 48.1431 140.611C47.7242 140.603 47.3241 140.484 46.9427 140.252C46.613 140.051 46.3534 139.787 46.164 139.46C45.9715 139.138 45.8758 138.808 45.8769 138.47L44.5129 140.711L43.8018 140.278L47.2824 134.559L47.9935 134.991L47.509 135.787C47.8018 135.62 48.1349 135.536 48.5084 135.538C48.8787 135.544 49.2468 135.659 49.6127 135.881C49.9888 136.11 50.2751 136.411 50.4714 136.785C50.6625 137.156 50.7438 137.562 50.7152 138.003C50.6866 138.445 50.5421 138.879 50.2819 139.307ZM46.7 137.117C46.5056 137.436 46.4007 137.754 46.3853 138.069C46.3699 138.385 46.4353 138.672 46.5817 138.93C46.7197 139.191 46.9201 139.401 47.1829 139.561C47.4457 139.721 47.723 139.805 48.0147 139.813C48.3063 139.821 48.5887 139.746 48.8618 139.587C49.1349 139.428 49.3686 139.189 49.563 138.87C49.7606 138.545 49.8686 138.222 49.8871 137.902C49.9026 137.586 49.8413 137.298 49.7032 137.038C49.562 136.783 49.3601 136.575 49.0972 136.415C48.8344 136.255 48.5572 136.171 48.2655 136.163C47.9655 136.157 47.679 136.233 47.4059 136.392C47.1297 136.556 46.8944 136.797 46.7 137.117Z" fill="#183A1D"/>
<path d="M40.6181 136.661C40.7418 136.757 40.8131 136.882 40.8321 137.034C40.851 137.186 40.8122 137.324 40.7158 137.448C40.6194 137.572 40.495 137.643 40.3427 137.662C40.1903 137.681 40.0522 137.642 39.9285 137.546C39.8096 137.453 39.743 137.333 39.7288 137.184C39.7099 137.031 39.7487 136.893 39.8451 136.77C39.9415 136.646 40.0659 136.575 40.2182 136.556C40.3659 136.533 40.4992 136.568 40.6181 136.661ZM40.799 135.781L43.8466 131.87L44.4961 132.376L41.4485 136.287L40.799 135.781Z" fill="#183A1D"/>
<path d="M35.599 130.209L37.6484 128.125C37.8176 127.953 37.9017 127.795 37.9005 127.65C37.895 127.509 37.802 127.35 37.6214 127.172L37.1892 126.747L37.6778 126.25L38.2067 126.771C38.5336 127.092 38.7047 127.409 38.72 127.72C38.7354 128.031 38.5738 128.359 38.2354 128.703L36.186 130.786L36.6439 131.237L36.1681 131.721L35.7101 131.27L34.8344 132.16L34.2474 131.583L35.1231 130.693L34.2007 129.785L34.6765 129.302L35.599 130.209Z" fill="#183A1D"/>
<path d="M29.4727 125.558C29.5711 125.68 29.6121 125.818 29.5957 125.97C29.5793 126.123 29.5101 126.249 29.388 126.347C29.2659 126.445 29.1285 126.486 28.9758 126.47C28.8231 126.454 28.6976 126.384 28.5992 126.262C28.5045 126.145 28.4673 126.012 28.4875 125.864C28.5039 125.711 28.5731 125.586 28.6953 125.487C28.8174 125.389 28.9548 125.348 29.1074 125.364C29.2563 125.376 29.3781 125.441 29.4727 125.558ZM29.8499 124.743L33.7105 121.631L34.2272 122.272L30.3666 125.384L29.8499 124.743Z" fill="#183A1D"/>
<path d="M29.4062 115.261C29.6542 115.653 29.7903 116.067 29.8146 116.501C29.8358 116.93 29.7411 117.339 29.5305 117.729C29.3117 118.117 28.9855 118.447 28.5519 118.721C28.1235 118.992 27.688 119.138 27.2457 119.161C26.795 119.181 26.3815 119.085 26.0052 118.874C25.6238 118.665 25.3075 118.362 25.0564 117.964C24.8052 117.566 24.6674 117.15 24.6431 116.716C24.6137 116.285 24.7042 115.875 24.9147 115.485C25.122 115.09 25.4425 114.756 25.876 114.482C26.3096 114.209 26.7533 114.064 27.2072 114.049C27.6528 114.031 28.0679 114.129 28.4525 114.343C28.8372 114.557 29.155 114.863 29.4062 115.261ZM28.7941 115.647C28.6363 115.397 28.4296 115.199 28.1738 115.054C27.918 114.909 27.6309 114.844 27.3126 114.86C26.991 114.87 26.6619 114.981 26.3252 115.194C25.9886 115.406 25.7448 115.653 25.5939 115.934C25.443 116.215 25.379 116.498 25.4021 116.783C25.42 117.071 25.5079 117.34 25.6656 117.59C25.8266 117.845 26.0334 118.043 26.286 118.183C26.5302 118.321 26.8099 118.38 27.125 118.359C27.4402 118.339 27.7661 118.222 28.1027 118.01C28.4445 117.794 28.694 117.551 28.8514 117.28C29.0055 117.004 29.0752 116.725 29.0605 116.442C29.0407 116.162 28.9519 115.897 28.7941 115.647Z" fill="#183A1D"/>
<path d="M21.3147 110.876C21.0535 110.333 21.0077 109.813 21.1774 109.316C21.3417 108.822 21.7338 108.426 22.3536 108.129L24.9879 106.863L25.3406 107.597L22.8123 108.812C22.3664 109.026 22.0801 109.301 21.9534 109.636C21.8213 109.974 21.848 110.336 22.0334 110.722C22.2215 111.113 22.494 111.367 22.851 111.483C23.2054 111.594 23.6164 111.537 24.084 111.313L26.5552 110.125L26.9118 110.868L22.4424 113.015L22.0858 112.273L22.722 111.967C22.4231 111.93 22.151 111.816 21.9058 111.626C21.658 111.431 21.4609 111.181 21.3147 110.876Z" fill="#183A1D"/>
<path d="M21.8725 105.502C21.3935 105.667 20.941 105.715 20.5148 105.645C20.083 105.577 19.7092 105.41 19.3934 105.142C19.0757 104.869 18.8449 104.524 18.7011 104.108C18.5593 103.698 18.5246 103.311 18.597 102.948C18.6694 102.584 18.8139 102.282 19.0307 102.042L18.1755 102.337L17.9037 101.55L22.5903 99.9312L22.8621 100.718L21.9898 101.019C22.3166 101.079 22.6245 101.231 22.9133 101.476C23.1944 101.717 23.4049 102.04 23.5447 102.445C23.6885 102.861 23.7158 103.273 23.6268 103.68C23.5377 104.087 23.3414 104.452 23.0378 104.774C22.7341 105.096 22.3457 105.338 21.8725 105.502ZM20.5102 101.53C20.1567 101.653 19.8735 101.83 19.6604 102.063C19.4474 102.296 19.3148 102.559 19.2627 102.852C19.2028 103.14 19.2232 103.43 19.3236 103.721C19.4241 104.012 19.5841 104.253 19.8036 104.445C20.0232 104.638 20.2887 104.76 20.6002 104.812C20.9117 104.864 21.2442 104.828 21.5977 104.706C21.9569 104.582 22.2459 104.403 22.4646 104.168C22.6776 103.934 22.8141 103.674 22.8739 103.385C22.928 103.098 22.9048 102.809 22.8044 102.519C22.704 102.228 22.544 101.986 22.3244 101.794C22.0972 101.598 21.8278 101.474 21.5163 101.422C21.1991 101.372 20.8637 101.408 20.5102 101.53Z" fill="#183A1D"/>
<path d="M15.1205 97.1129L21.6586 95.6691L21.8362 96.4731L15.2981 97.917L15.1205 97.1129Z" fill="#183A1D"/>
<path d="M14.1726 77.2156L20.4334 77.2981L20.4225 78.1214L15.7541 78.0599L20.3951 80.2023L20.3875 80.7813L15.6825 82.8097L20.36 82.8713L20.3491 83.6946L14.0883 83.6121L14.1 82.7255L19.3056 80.4775L14.161 78.0932L14.1726 77.2156Z" fill="#183A1D"/>
<path d="M18.7025 70.9723C18.858 70.9924 19.0214 71.0226 19.1926 71.0629L18.685 74.9934C19.1734 75.0261 19.5746 74.9106 19.8884 74.647C20.197 74.3767 20.3791 74.0262 20.4347 73.5954C20.4803 73.2425 20.4374 72.9389 20.306 72.6847C20.1694 72.4238 19.9697 72.2277 19.7069 72.0964L19.8204 71.217C20.2761 71.4097 20.6279 71.7227 20.8761 72.1562C21.1182 72.5889 21.2014 73.0984 21.1257 73.6847C21.0655 74.1513 20.9067 74.5565 20.6494 74.9004C20.3929 75.2383 20.0597 75.4872 19.6498 75.6471C19.2339 75.8063 18.7717 75.8531 18.2631 75.7874C17.7546 75.7217 17.3221 75.5625 16.9655 75.3096C16.6089 75.0568 16.3524 74.7348 16.1961 74.3436C16.0347 73.9456 15.9848 73.5073 16.0466 73.0287C16.1069 72.5621 16.2619 72.1624 16.5117 71.8298C16.7614 71.4971 17.0781 71.2582 17.4618 71.1131C17.8403 70.9613 18.2538 70.9143 18.7025 70.9723ZM18.4231 71.7938C18.112 71.7536 17.8369 71.788 17.5978 71.897C17.3527 72.0053 17.1578 72.1717 17.0133 72.3963C16.8635 72.6142 16.77 72.8667 16.733 73.1539C16.6797 73.5667 16.7657 73.9366 16.9911 74.2637C17.2172 74.5849 17.5609 74.7965 18.0221 74.8987L18.4231 71.7938Z" fill="#183A1D"/>
<path d="M20.5094 63.6576C20.6616 63.6954 20.8204 63.7442 20.9858 63.804L20.0296 67.65C20.511 67.7386 20.9227 67.6701 21.2648 67.4443C21.6024 67.2113 21.8237 66.884 21.9285 66.4625C22.0143 66.1171 22.0066 65.8106 21.9053 65.543C21.7996 65.2681 21.6238 65.0504 21.3778 64.8898L21.5918 64.0292C22.0222 64.273 22.3357 64.6244 22.5324 65.0836C22.7231 65.5412 22.7472 66.0569 22.6046 66.6306C22.4911 67.0872 22.2867 67.4715 21.9916 67.7835C21.6979 68.0897 21.3383 68.2986 20.9127 68.4103C20.4813 68.5206 20.0168 68.5139 19.5192 68.3902C19.0216 68.2665 18.6102 68.0585 18.2851 67.7664C17.9599 67.4742 17.7422 67.1248 17.6319 66.7182C17.5173 66.3043 17.5182 65.8632 17.6346 65.3949C17.7482 64.9383 17.9481 64.5592 18.2345 64.2574C18.5208 63.9557 18.8629 63.7548 19.2607 63.6548C19.6541 63.5475 20.0703 63.5484 20.5094 63.6576ZM20.1373 64.4415C19.8329 64.3658 19.5557 64.3684 19.3056 64.4491C19.0497 64.5285 18.837 64.6714 18.6676 64.8779C18.4937 65.0771 18.3719 65.3172 18.302 65.5982C18.2016 66.0021 18.2445 66.3795 18.4308 66.7304C18.6185 67.0754 18.9355 67.3252 19.382 67.4797L20.1373 64.4415Z" fill="#183A1D"/>
<path d="M20.5826 58.8448L23.3189 59.8714C23.5448 59.9562 23.7238 59.9686 23.8558 59.9086C23.9822 59.8465 24.0899 59.6968 24.1789 59.4596L24.3919 58.892L25.0442 59.1368L24.7835 59.8314C24.6225 60.2607 24.4029 60.5455 24.1247 60.6859C23.8465 60.8264 23.4815 60.8119 23.0297 60.6423L20.2934 59.6157L20.0677 60.2172L19.4323 59.9788L19.658 59.3773L18.4889 58.9387L18.7782 58.1677L19.9472 58.6064L20.4018 57.3949L21.0371 57.6333L20.5826 58.8448Z" fill="#183A1D"/>
<path d="M27.837 53.4571C27.6635 53.7952 27.4515 54.0695 27.2011 54.28C26.9453 54.4877 26.6755 54.6171 26.3917 54.668C26.1025 54.7162 25.8196 54.6795 25.543 54.5579L25.9314 53.8012C26.1625 53.8927 26.3946 53.883 26.6278 53.7722C26.8637 53.656 27.0588 53.4476 27.213 53.1471C27.3563 52.868 27.4075 52.6163 27.3667 52.3919C27.3259 52.1676 27.2116 52.0072 27.0237 51.9108C26.8305 51.8117 26.6443 51.8245 26.4649 51.9494C26.2801 52.0716 26.0499 52.289 25.7741 52.6018C25.5202 52.885 25.2966 53.1093 25.1034 53.2745C24.9075 53.4316 24.6851 53.5412 24.4362 53.6033C24.1848 53.6573 23.9168 53.6114 23.6324 53.4654C23.407 53.3497 23.2348 53.1766 23.1158 52.946C22.9969 52.7154 22.9471 52.4492 22.9665 52.1472C22.9805 51.8425 23.0687 51.5318 23.2312 51.2152C23.4819 50.7269 23.8078 50.3958 24.2089 50.222C24.61 50.0481 25.0307 50.0607 25.4711 50.2596L25.0951 50.9921C24.856 50.8898 24.6227 50.8886 24.395 50.9887C24.1701 51.0835 23.9847 51.2731 23.8387 51.5575C23.7037 51.8205 23.6526 52.0587 23.6854 52.2722C23.7183 52.4856 23.8259 52.6392 24.0084 52.7328C24.1533 52.8072 24.2974 52.8236 24.4408 52.7819C24.5817 52.7321 24.7174 52.6526 24.848 52.5434C24.9761 52.4261 25.1397 52.2592 25.3389 52.0428C25.5873 51.7702 25.8054 51.5567 25.9932 51.4022C26.1756 51.2449 26.3858 51.1393 26.6237 51.0851C26.8645 51.0256 27.1204 51.062 27.3915 51.1944C27.633 51.3183 27.8159 51.497 27.9402 51.7303C28.0645 51.9636 28.1197 52.2326 28.1057 52.5373C28.0891 52.8339 27.9995 53.1405 27.837 53.4571Z" fill="#183A1D"/>
<path d="M33.6562 34.6471L38.4261 38.7033L37.8927 39.3306L34.336 36.306L36.5445 40.9159L36.1694 41.3571L31.2517 39.9189L34.8153 42.9493L34.2819 43.5766L29.5121 39.5204L30.0865 38.8449L35.5298 40.4331L33.0876 35.3157L33.6562 34.6471Z" fill="#183A1D"/>
<path d="M41.277 36.3491C40.9374 36.666 40.5567 36.8769 40.1348 36.9818C39.7173 37.0826 39.2975 37.0659 38.8754 36.9318C38.4535 36.7892 38.0677 36.5304 37.7179 36.1556C37.3722 35.7851 37.147 35.3847 37.0424 34.9543C36.9381 34.5153 36.9549 34.0913 37.0928 33.682C37.2266 33.2684 37.4655 32.9011 37.8095 32.5801C38.1535 32.2591 38.5365 32.0462 38.9584 31.9412C39.3761 31.8319 39.7961 31.8443 40.2182 31.9784C40.6448 32.1084 41.033 32.3608 41.3828 32.7357C41.7326 33.1106 41.9575 33.5196 42.0574 33.9626C42.1576 34.3971 42.1386 34.8233 42.0003 35.241C41.8621 35.6587 41.621 36.0281 41.277 36.3491ZM40.7832 35.8199C40.9993 35.6182 41.1548 35.3782 41.2498 35.0998C41.3448 34.8214 41.355 34.5273 41.2803 34.2174C41.2101 33.9034 41.0392 33.6009 40.7676 33.3098C40.4959 33.0187 40.2082 32.8253 39.9042 32.7294C39.6002 32.6335 39.3103 32.6235 39.0346 32.6993C38.7547 32.7707 38.5067 32.9072 38.2906 33.1089C38.0701 33.3147 37.9145 33.5547 37.824 33.829C37.7337 34.0947 37.7281 34.3805 37.8071 34.6862C37.8862 34.992 38.0615 35.2904 38.3331 35.5815C38.6088 35.877 38.8943 36.0768 39.1894 36.1809C39.489 36.2809 39.7765 36.2972 40.052 36.2299C40.3233 36.1582 40.5671 36.0215 40.7832 35.8199Z" fill="#183A1D"/>
<path d="M43.2584 31.3541C42.9576 30.9463 42.7769 30.5287 42.7164 30.1011C42.6523 29.6687 42.7007 29.2619 42.8618 28.8807C43.0277 28.496 43.2903 28.1711 43.6495 27.9061C43.9602 27.6769 44.3027 27.5367 44.6771 27.4854C45.048 27.4292 45.3897 27.4657 45.7024 27.5949L44.1447 25.4833L44.8146 24.9891L48.7893 30.3773L48.1194 30.8715L47.5662 30.1215C47.6106 30.4561 47.5614 30.7959 47.4188 31.141C47.2725 31.4813 47.027 31.7785 46.6824 32.0328C46.328 32.2942 45.9407 32.4449 45.5206 32.485C45.1053 32.5215 44.6987 32.4429 44.3009 32.2491C43.9031 32.0553 43.5556 31.757 43.2584 31.3541ZM46.6423 28.8691C46.4203 28.5681 46.1663 28.3508 45.8802 28.217C45.5941 28.0832 45.3038 28.0351 45.0091 28.0725C44.7157 28.1016 44.4452 28.2074 44.1976 28.39C43.9501 28.5727 43.7673 28.7974 43.6494 29.0643C43.5314 29.3312 43.4941 29.6211 43.5375 29.9339C43.5809 30.2467 43.7136 30.5536 43.9356 30.8546C44.1612 31.1604 44.4188 31.3826 44.7084 31.5212C44.9945 31.655 45.2843 31.7074 45.5777 31.6784C45.8675 31.6445 46.1362 31.5362 46.3837 31.3536C46.6313 31.171 46.8141 30.9462 46.932 30.6793C47.0512 30.404 47.0891 30.1099 47.0458 29.7971C46.9988 29.4794 46.8644 29.1701 46.6423 28.8691Z" fill="#183A1D"/>
<path d="M53.7149 24.4896C53.7929 24.6256 53.8675 24.7741 53.9388 24.9348L50.5001 26.9051C50.7692 27.314 51.1035 27.5639 51.5032 27.6547C51.9051 27.7373 52.2944 27.6706 52.6713 27.4547C52.9801 27.2778 53.196 27.0602 53.3192 26.8019C53.4446 26.5354 53.4802 26.2578 53.426 25.9691L54.1953 25.5282C54.3171 26.0077 54.2802 26.4772 54.0847 26.9368C53.8862 27.3912 53.5305 27.7654 53.0176 28.0592C52.6094 28.2932 52.1905 28.4115 51.7611 28.4142C51.3368 28.414 50.9372 28.2988 50.5621 28.0688C50.184 27.8336 49.8674 27.4935 49.6125 27.0486C49.3576 26.6038 49.2232 26.1629 49.2092 25.7259C49.1953 25.289 49.2969 24.8901 49.5142 24.5292C49.7338 24.1601 50.0529 23.8556 50.4716 23.6157C50.8798 23.3818 51.292 23.2638 51.708 23.2618C52.1239 23.2599 52.5057 23.3679 52.8531 23.586C53.2027 23.7958 53.49 24.097 53.7149 24.4896ZM52.8915 24.7632C52.7355 24.4911 52.5419 24.2926 52.3106 24.168C52.0762 24.038 51.8259 23.9833 51.5596 24.0039C51.2955 24.0161 51.0378 24.0942 50.7866 24.2382C50.4254 24.4451 50.1826 24.7372 50.0581 25.1144C49.9388 25.4887 49.9778 25.8904 50.1751 26.3196L52.8915 24.7632Z" fill="#183A1D"/>
<path d="M57.1247 21.4005C57.1461 21.0829 57.2478 20.7997 57.4299 20.551C57.6176 20.2999 57.8888 20.0982 58.2437 19.9461L58.5788 20.7278L58.3792 20.8134C57.531 21.1771 57.3042 21.8191 57.6988 22.7394L58.7613 25.2176L58.0045 25.542L56.0506 20.9848L56.8074 20.6604L57.1247 21.4005Z" fill="#183A1D"/>
<path d="M65.1515 17.6682C65.7295 17.4959 66.2503 17.5326 66.7139 17.7783C67.1757 18.0183 67.5049 18.4678 67.7014 19.1267L68.5365 21.9274L67.7561 22.1601L66.9546 19.4722C66.8133 18.9982 66.587 18.6722 66.2759 18.4943C65.9631 18.3106 65.6014 18.28 65.191 18.4024C64.7748 18.5265 64.4812 18.7556 64.3102 19.0899C64.145 19.4224 64.1365 19.8372 64.2847 20.3344L65.0681 22.9617L64.2791 23.1969L62.8622 18.4453L63.6513 18.21L63.8529 18.8863C63.9366 18.597 64.0916 18.3462 64.3178 18.134C64.5499 17.92 64.8278 17.7648 65.1515 17.6682Z" fill="#183A1D"/>
<path d="M45.6171 65.1452C46.5636 65.1452 47.368 65.2792 48.0305 65.5474C48.693 65.8156 49.3397 66.1941 49.9707 66.6831C50.1442 66.8251 50.294 66.896 50.4202 66.896C50.7357 66.896 50.9407 66.4228 51.0354 65.4764H51.5796C51.5165 66.5017 51.4849 68.3157 51.4849 70.9183H50.9407C50.7672 69.893 50.6095 69.1596 50.4675 68.7179C50.3256 68.2605 50.089 67.8267 49.7577 67.4166C49.2845 66.8014 48.6772 66.344 47.9359 66.0443C47.2103 65.7288 46.4216 65.5711 45.5698 65.5711C44.5445 65.5711 43.6454 65.9102 42.8725 66.5885C42.1154 67.2667 41.5239 68.2368 41.098 69.4987C40.6721 70.7448 40.4592 72.2118 40.4592 73.8995C40.4592 75.6189 40.6879 77.0937 41.1453 78.3241C41.6028 79.5544 42.2337 80.4929 43.0382 81.1396C43.8584 81.7706 44.7811 82.0861 45.8064 82.0861C46.5951 82.0861 47.3601 81.9362 48.1015 81.6365C48.8429 81.3368 49.4265 80.8873 49.8524 80.2879C50.1678 79.8462 50.3966 79.373 50.5385 78.8682C50.6805 78.3635 50.8146 77.5906 50.9407 76.5495H51.4849C51.4849 79.2626 51.5165 81.1554 51.5796 82.228H51.0354C50.9881 81.7233 50.9171 81.3684 50.8224 81.1633C50.7436 80.9425 50.6253 80.8321 50.4675 80.8321C50.3413 80.8321 50.1757 80.8952 49.9707 81.0213C49.2609 81.5261 48.5826 81.9126 47.9359 82.1807C47.2891 82.4331 46.5084 82.5593 45.5935 82.5593C44.095 82.5593 42.7779 82.2201 41.6422 81.5419C40.5223 80.8636 39.6468 79.8856 39.0159 78.608C38.4007 77.3145 38.0931 75.7766 38.0931 73.9942C38.0931 72.2591 38.4086 70.7212 39.0395 69.3804C39.6863 68.0396 40.5775 66.9986 41.7132 66.2572C42.8646 65.5159 44.166 65.1452 45.6171 65.1452ZM69.5728 68.3157C69.005 68.3472 68.587 68.4103 68.3188 68.505C68.0664 68.5996 67.8929 68.781 67.7983 69.0491C67.7036 69.3173 67.6563 69.7511 67.6563 70.3505V79.72C67.6563 80.3194 67.7036 80.7532 67.7983 81.0213C67.8929 81.2895 68.0664 81.4709 68.3188 81.5655C68.587 81.6602 69.005 81.7233 69.5728 81.7548V82.228C68.9103 82.1807 67.9008 82.157 66.5443 82.157C65.2824 82.157 64.2807 82.1807 63.5394 82.228V81.7548C64.1072 81.7233 64.5174 81.6602 64.7697 81.5655C65.0379 81.4709 65.2193 81.2895 65.3139 81.0213C65.4086 80.7532 65.4559 80.3194 65.4559 79.72V75.0116H58.2394V79.72C58.2394 80.3194 58.2868 80.7532 58.3814 81.0213C58.476 81.2895 58.6496 81.4709 58.9019 81.5655C59.1701 81.6602 59.5881 81.7233 60.1559 81.7548V82.228C59.4304 82.1807 58.4287 82.157 57.1511 82.157C55.7945 82.157 54.785 82.1807 54.1225 82.228V81.7548C54.6904 81.7233 55.1005 81.6602 55.3529 81.5655C55.621 81.4709 55.8024 81.2895 55.8971 81.0213C55.9917 80.7532 56.039 80.3194 56.039 79.72V70.3505C56.039 69.7511 55.9917 69.3173 55.8971 69.0491C55.8024 68.781 55.621 68.5996 55.3529 68.505C55.1005 68.4103 54.6904 68.3472 54.1225 68.3157V67.8425C54.785 67.8898 55.7945 67.9134 57.1511 67.9134C58.413 67.9134 59.4146 67.8898 60.1559 67.8425V68.3157C59.5881 68.3472 59.1701 68.4103 58.9019 68.505C58.6496 68.5996 58.476 68.781 58.3814 69.0491C58.2868 69.3173 58.2394 69.7511 58.2394 70.3505V74.5384H65.4559V70.3505C65.4559 69.7511 65.4086 69.3173 65.3139 69.0491C65.2193 68.781 65.0379 68.5996 64.7697 68.505C64.5174 68.4103 64.1072 68.3472 63.5394 68.3157V67.8425C64.265 67.8898 65.2666 67.9134 66.5443 67.9134C67.9008 67.9134 68.9103 67.8898 69.5728 67.8425V68.3157ZM83.587 80.2405C84.0129 81.2185 84.5571 81.7233 85.2196 81.7548V82.228C84.5886 82.1807 83.7447 82.157 82.6879 82.157C81.3314 82.157 80.3219 82.1807 79.6594 82.228V81.7548C80.243 81.7233 80.6689 81.6444 80.937 81.5182C81.221 81.392 81.3629 81.1791 81.3629 80.8794C81.3629 80.627 81.2525 80.2563 81.0317 79.7673L79.825 77.07H74.0755L73.271 78.8446C73.0029 79.4598 72.8688 79.9645 72.8688 80.3589C72.8688 80.769 73.0108 81.0923 73.2947 81.3289C73.5944 81.5498 74.0676 81.6917 74.7143 81.7548V82.228C74.2411 82.1807 73.5234 82.157 72.5612 82.157C71.599 82.157 70.9129 82.1807 70.5028 82.228V81.7548C70.9287 81.6444 71.2915 81.4078 71.5912 81.045C71.8909 80.6664 72.1748 80.1696 72.4429 79.5544L77.6719 67.7242H78.0505L83.587 80.2405ZM79.6357 76.5968L76.9621 70.5871L74.2648 76.5968H79.6357ZM92.1807 68.3157C91.6129 68.3472 91.1949 68.4103 90.9267 68.505C90.6744 68.5996 90.5009 68.781 90.4062 69.0491C90.3116 69.3173 90.2642 69.7511 90.2642 70.3505V79.72C90.2642 80.3194 90.3116 80.7532 90.4062 81.0213C90.5009 81.2895 90.6744 81.4709 90.9267 81.5655C91.1949 81.6444 91.6129 81.6838 92.1807 81.6838H93.6714C94.7597 81.6838 95.6036 81.3605 96.203 80.7138C96.8182 80.067 97.1889 78.9944 97.3151 77.4959H97.8593C97.8119 77.9849 97.7883 78.6316 97.7883 79.4361C97.7883 80.2563 97.8435 81.187 97.9539 82.228C96.9286 82.1807 95.2014 82.157 92.7723 82.157C89.8541 82.157 87.6458 82.1807 86.1473 82.228V81.7548C86.7152 81.7233 87.1253 81.6602 87.3777 81.5655C87.6458 81.4709 87.8272 81.2895 87.9219 81.0213C88.0165 80.7532 88.0638 80.3194 88.0638 79.72V70.3505C88.0638 69.7511 88.0165 69.3173 87.9219 69.0491C87.8272 68.781 87.6458 68.5996 87.3777 68.505C87.1253 68.4103 86.7152 68.3472 86.1473 68.3157V67.8425C86.8098 67.8898 87.8193 67.9134 89.1759 67.9134C90.4378 67.9134 91.4394 67.8898 92.1807 67.8425V68.3157ZM111.351 79.4361C111.351 80.2563 111.407 81.187 111.517 82.228C110.492 82.1807 108.765 82.157 106.335 82.157C103.417 82.157 101.209 82.1807 99.7105 82.228V81.7548C100.278 81.7233 100.688 81.6602 100.941 81.5655C101.209 81.4709 101.39 81.2895 101.485 81.0213C101.58 80.7532 101.627 80.3194 101.627 79.72V70.3505C101.627 69.7511 101.58 69.3173 101.485 69.0491C101.39 68.781 101.209 68.5996 100.941 68.505C100.688 68.4103 100.278 68.3472 99.7105 68.3157V67.8425C101.209 67.8898 103.417 67.9134 106.335 67.9134C108.544 67.9134 110.113 67.8898 111.044 67.8425C110.933 68.7889 110.878 69.6407 110.878 70.3978C110.878 71.013 110.902 71.502 110.949 71.8647H110.405C110.295 70.5713 110.019 69.6722 109.577 69.1675C109.151 68.6469 108.449 68.3867 107.471 68.3867H105.744C105.176 68.3867 104.758 68.434 104.49 68.5286C104.238 68.6075 104.064 68.781 103.969 69.0491C103.875 69.3173 103.827 69.7511 103.827 70.3505V74.7513H105.791C106.296 74.7513 106.682 74.6251 106.951 74.3728C107.219 74.1046 107.4 73.8207 107.495 73.521C107.589 73.2055 107.676 72.8112 107.755 72.338H108.299C108.252 72.8743 108.228 73.4579 108.228 74.0888V74.9879C108.228 75.6031 108.276 76.4864 108.37 77.6379H107.826C107.731 76.8808 107.55 76.2893 107.282 75.8634C107.014 75.4375 106.517 75.2245 105.791 75.2245H103.827V79.72C103.827 80.3194 103.875 80.7532 103.969 81.0213C104.064 81.2895 104.238 81.4709 104.49 81.5655C104.758 81.6444 105.176 81.6838 105.744 81.6838H107.471C108.26 81.6838 108.883 81.5576 109.34 81.3053C109.798 81.0529 110.145 80.6507 110.381 80.0986C110.618 79.5307 110.784 78.7421 110.878 77.7325H111.422C111.375 78.1584 111.351 78.7263 111.351 79.4361ZM126.914 67.8425C126.803 68.8835 126.748 69.8142 126.748 70.6344C126.748 71.4546 126.772 72.1013 126.819 72.5746H126.275C126.18 71.4704 126.03 70.6265 125.825 70.0429C125.62 69.4593 125.289 69.0413 124.831 68.7889C124.374 68.5207 123.719 68.3867 122.868 68.3867H121.353V79.4834C121.353 80.1459 121.416 80.627 121.543 80.9267C121.669 81.2264 121.89 81.4315 122.205 81.5419C122.521 81.6523 123.033 81.7233 123.743 81.7548V82.228C122.923 82.1807 121.763 82.157 120.265 82.157C118.688 82.157 117.52 82.1807 116.763 82.228V81.7548C117.473 81.7233 117.986 81.6523 118.301 81.5419C118.617 81.4315 118.837 81.2264 118.964 80.9267C119.09 80.627 119.153 80.1459 119.153 79.4834V68.3867H117.639C116.787 68.3867 116.132 68.5207 115.675 68.7889C115.217 69.0413 114.886 69.4593 114.681 70.0429C114.476 70.6265 114.326 71.4704 114.232 72.5746H113.687C113.735 72.0698 113.758 71.4231 113.758 70.6344C113.758 69.8142 113.703 68.8835 113.593 67.8425C114.902 67.8898 117.126 67.9134 120.265 67.9134C123.388 67.9134 125.604 67.8898 126.914 67.8425Z" fill="#183A1D"/>
<path d="M83.6357 87.7293C84.3455 87.7293 84.937 87.7056 85.4102 87.6583V88.1315C84.5269 88.3366 83.9039 89.0227 83.5411 90.19L79.0692 104.528H78.8799H78.6907L74.5737 92.3431L70.8117 104.528H70.6224H70.4332L65.4171 89.6458C65.0859 88.6678 64.5417 88.1631 63.7846 88.1315V87.6583C64.4313 87.7056 65.2752 87.7293 66.3162 87.7293C67.4519 87.7293 68.3037 87.7056 68.8716 87.6583V88.1315C68.4457 88.1631 68.146 88.2419 67.9725 88.3681C67.799 88.4943 67.7122 88.6915 67.7122 88.9596C67.7122 89.212 67.799 89.5985 67.9725 90.119L71.4269 100.672L74.3135 91.515L73.6746 89.6458C73.3592 88.6678 72.8939 88.1631 72.2787 88.1315V87.6583C72.8465 87.7056 73.6116 87.7293 74.5737 87.7293C75.9303 87.7293 76.9398 87.7056 77.6023 87.6583V88.1315C77.0029 88.1631 76.5849 88.234 76.3483 88.3445C76.1117 88.4391 75.9934 88.652 75.9934 88.9833C75.9934 89.2672 76.0722 89.6458 76.23 90.119L79.6371 100.648L82.5473 91.4913C82.7997 90.7184 82.9259 90.0796 82.9259 89.5748C82.9259 89.0543 82.7682 88.6915 82.4527 88.4864C82.1372 88.2656 81.6246 88.1473 80.9147 88.1315V87.6583C81.8138 87.7056 82.7208 87.7293 83.6357 87.7293ZM98.7612 102.493C99.0294 102.888 99.3212 103.203 99.6366 103.44C99.9679 103.661 100.37 103.826 100.843 103.937V104.41C100.086 104.363 99.1398 104.339 98.0041 104.339C97.1523 104.339 96.34 104.363 95.567 104.41V103.937C95.9456 103.921 96.2216 103.874 96.3952 103.795C96.5687 103.716 96.6554 103.598 96.6554 103.44C96.6554 103.282 96.5766 103.093 96.4188 102.872L92.9644 97.6667C92.507 96.9726 92.1205 96.5231 91.805 96.318C91.4896 96.0972 91.0479 95.971 90.48 95.9395V101.902C90.48 102.501 90.5274 102.935 90.622 103.203C90.7166 103.471 90.8902 103.653 91.1425 103.747C91.4107 103.842 91.8287 103.905 92.3965 103.937V104.41C91.671 104.363 90.6693 104.339 89.3917 104.339C88.0351 104.339 87.0256 104.363 86.3631 104.41V103.937C86.931 103.905 87.3411 103.842 87.5935 103.747C87.8616 103.653 88.043 103.471 88.1377 103.203C88.2323 102.935 88.2796 102.501 88.2796 101.902V90.1663C88.2796 89.5669 88.2323 89.1331 88.1377 88.865C88.043 88.5968 87.8616 88.4154 87.5935 88.3208C87.3411 88.2262 86.931 88.1631 86.3631 88.1315V87.6583C87.0256 87.7056 88.0351 87.7293 89.3917 87.7293C90.6536 87.7293 91.6552 87.7056 92.3965 87.6583V88.1315C91.8287 88.1631 91.4107 88.2262 91.1425 88.3208C90.8902 88.4154 90.7166 88.5968 90.622 88.865C90.5274 89.1331 90.48 89.5669 90.48 90.1663V95.4663C91.6315 95.4189 92.5306 94.9773 93.1773 94.1413L95.4487 91.2547C96.2532 90.261 96.6554 89.5038 96.6554 88.9833C96.6554 88.4312 96.1664 88.1473 95.1885 88.1315V87.6583C96.0876 87.7056 96.9946 87.7293 97.9094 87.7293C98.777 87.7293 99.4474 87.7056 99.9206 87.6583V88.1315C99.4 88.2104 98.9111 88.3839 98.4536 88.652C97.9962 88.9044 97.5545 89.3067 97.1286 89.8587L93.272 94.8038L98.7612 102.493Z" fill="#183A1D"/>
<path d="M130.686 95.4155L129.263 93.9926L127.84 95.4155L129.263 96.8385L130.686 95.4155ZM108.313 95.662H129.263V95.1691H108.313V95.662Z" fill="#183A1D"/>
<path d="M35.6626 95.4155L37.0855 96.8385L38.5085 95.4155L37.0855 93.9926L35.6626 95.4155ZM58.0349 95.1691L37.0855 95.1691L37.0855 95.662L58.0349 95.662L58.0349 95.1691Z" fill="#183A1D"/>
</svg>
