<svg width="25" height="24" viewBox="0 0 25 24" fill="none" xmlns="http://www.w3.org/2000/svg">
<path d="M15.5 21L9.5 18.9L4.85 20.7C4.51667 20.8333 4.20833 20.7957 3.925 20.587C3.64167 20.3783 3.5 20.0993 3.5 19.75V5.75C3.5 5.53333 3.56267 5.34167 3.688 5.175C3.81333 5.00833 3.984 4.88333 4.2 4.8L9.5 3L15.5 5.1L20.15 3.3C20.4833 3.16667 20.7917 3.20433 21.075 3.413C21.3583 3.62167 21.5 3.90067 21.5 4.25V18.25C21.5 18.4667 21.4373 18.6583 21.312 18.825C21.1867 18.9917 21.016 19.1167 20.8 19.2L15.5 21ZM14.5 18.55V6.85L10.5 5.45V17.15L14.5 18.55ZM16.5 18.55L19.5 17.55V5.7L16.5 6.85V18.55ZM5.5 18.3L8.5 17.15V5.45L5.5 6.45V18.3Z" fill="#183A1D"/>
</svg>
